<svg xmlns="http://www.w3.org/2000/svg" viewBox="0 0 32 32" width="32" height="32">
  <!-- Lid handle -->
  <rect x="12" y="3" width="8" height="3" rx="1.5" fill="none" stroke="#90aac0" stroke-width="1.5"/>
  <!-- Lid -->
  <rect x="4" y="6" width="24" height="4" rx="2" fill="#8aaac0"/>
  <rect x="4" y="6" width="24" height="2" rx="2" fill="#a8c4d8" opacity="0.6"/>
  <!-- Bin body -->
  <path d="M6,10 L8,28 L24,28 L26,10 Z" fill="#6890b0"/>
  <!-- Body left highlight -->
  <path d="M6,10 L8,28 L10,28 L8,10 Z" fill="#8aaac0" opacity="0.55"/>
  <!-- Body right shadow -->
  <path d="M24,10 L26,10 L24,28 L22,28 Z" fill="#4a7090" opacity="0.4"/>
  <!-- Bottom ellipse -->
  <ellipse cx="16" cy="28" rx="8" ry="2" fill="#507090"/>
  <!-- Vertical ridges -->
  <line x1="12" y1="12" x2="11" y2="26" stroke="#8aaac0" stroke-width="0.9" opacity="0.5"/>
  <line x1="16" y1="12" x2="16" y2="26" stroke="#8aaac0" stroke-width="0.9" opacity="0.5"/>
  <line x1="20" y1="12" x2="21" y2="26" stroke="#8aaac0" stroke-width="0.9" opacity="0.5"/>
  <!-- Recycle symbol (simplified arrows) -->
  <path d="M13,18 L16,14 L19,18 L17,18 L17,22 L15,22 L15,18 Z" fill="#00aa44" opacity="0.85"/>
</svg>
